{"title":"Showtime Championship Boxing(4-26-2014)(720pMkv)-desspratt-","uid":10070269,"size":10656640030,"categoryP":"video","categoryS":"hd___tv_shows","magnet":"?xt=urn:btih:7d1ad49e3a1e56103e3dcdbab960b0b825c1385a&amp;dn=Showtime+Championship+Boxing%284-26-2014%29%28720pMkv%29-desspratt-&amp;tr=udp%3A%2F%2Ftracker.openbittorrent.com%3A80&amp;tr=udp%3A%2F%2Fopen.demonii.com%3A1337&amp;tr=udp%3A%2F%2Ftracker.coppersurfer.tk%3A6969&amp;tr=udp%3A%2F%2Fexodus.desync.com%3A6969","seeders":0,"leechers":3,"uploader":"desspratt","files":1,"time":1398839586,"description":"Showtime 4-26-2014  \n The format is MP4 file. \n The overall quality is Excellent \n The language is English\n\n\n\n[URL=https://imageshack.com/i/nhe4svp][IMG]http://imagizer.imageshack.us/v2/1024x768q90/845/e4sv.png[/IMG][/URL]\n[URL=https://imageshack.com/i/n7nzcrp][IMG]http://imagizer.imageshack.us/v2/1024x768q90/835/nzcr.png[/IMG][/URL]\n[URL=https://imageshack.com/i/n6fdjjp][IMG]http://imagizer.imageshack.us/v2/1024x768q90/834/fdjj.png[/IMG][/URL]\n\n~~~~~~~~~~~~~~~~~~~~~~~~~~~~~~~~~~~~~~~~~~~~~~~~~~~~~~~~~~~~~~~~~~~~~~~~~~~~~~~~~~~~~~~~~~~~~~~~~~~~~~~~~~~~~~~~~~~~~~~~~~~~~~~~~~~~~~~~~~~~~~~~~~~~~~~~~~~~~~~~~~~~~~~~~~~~~~~~~~~~~~~~~~~~~~~~~~~~~~\n\nShowtime 4-26-2014 .mkv\nFormat                                   : Matroska\nFormat version                           : Version 2\nFile size                                : 9.92 GiB\nDuration                                 : 2h 55mn\nOverall bit rate                         : 8 105 Kbps\nWriting application                      : Lavf51.12.1\nWriting library                          : Lavf51.12.1\n\nVideo\nID                                       : 1\nFormat                                   : AVC\nFormat/Info                              : Advanced Video Codec\nFormat profile                           : &lt;a class=&quot;__cf_email__&quot; href=&quot;/cdn-cgi/l/email-protection&quot; data-cfemail=&quot;2466455741484d4a416468100a14&quot;&gt;[email&amp;#160;protected]&lt;/a&gt;&lt;script cf-hash='f9e31' type=&quot;text/javascript&quot;&gt;\n/* &lt;![CDATA[ */!function(){try{var t=&quot;currentScript&quot;in document?document.currentScript:function(){for(var t=document.getElementsByTagName(&quot;script&quot;),e=t.length;e--;)if(t[e].getAttribute(&quot;cf-hash&quot;))return t[e]}();if(t&amp;&amp;t.previousSibling){var e,r,n,i,c=t.previousSibling,a=c.getAttribute(&quot;data-cfemail&quot;);if(a){for(e=&quot;&quot;,r=parseInt(a.substr(0,2),16),n=2;a.length-n;n+=2)i=parseInt(a.substr(n,2),16)^r,e+=String.fromCharCode(i);e=document.createTextNode(e),c.parentNode.replaceChild(e,c)}}}catch(u){}}();/* ]]&gt; */&lt;/script&gt;\nFormat settings, CABAC                   : No\nFormat settings, ReFrames                : 2 frames\nFormat settings, GOP                     : M=1, N=12\nCodec ID                                 : V_MPEG4/ISO/AVC\nDuration                                 : 2h 55mn\nBit rate                                 : 7 816 Kbps\nWidth                                    : 1 920 pixels\nHeight                                   : 1 080 pixels\nDisplay aspect ratio                     : 16:9\nFrame rate mode                          : Constant\nFrame rate                               : 29.970 fps\nStandard                                 : NTSC\nColor space                              : YUV\nChroma subsampling                       : 4:2:0\nBit depth                                : 8 bits\nScan type                                : Progressive\nBits/(Pixel*Frame)                       : 0.126\nStream size                              : 9.57 GiB (96%)\nDefault                                  : Yes\nForced                                   : No\nColor primaries                          : BT.601 NTSC\nTransfer characteristics                 : BT.601\nMatrix coefficients                      : BT.601\n\nAudio\nID                                       : 2\nFormat                                   : MPEG Audio\nFormat version                           : Version 1\nFormat profile                           : Layer 3\nMode                                     : Joint stereo\nCodec ID                                 : A_MPEG/L3\nCodec ID/Hint                            : MP3\nDuration                                 : 2h 55mn\nBit rate mode                            : Constant\nBit rate                                 : 128 Kbps\nChannel(s)                               : 2 channels\nSampling rate                            : 44.1 KHz\nCompression mode                         : Lossy\nStream size                              : 161 MiB (2%)\nDefault                                  : Yes\nForced                                   : No\n\n","torrent":{"xt":"urn:btih:7d1ad49e3a1e56103e3dcdbab960b0b825c1385a","amp;dn":"Showtime+Championship+Boxing%284-26-2014%29%28720pMkv%29-desspratt-","amp;tr":["udp%3A%2F%2Ftracker.openbittorrent.com%3A80","udp%3A%2F%2Fopen.demonii.com%3A1337","udp%3A%2F%2Ftracker.coppersurfer.tk%3A6969","udp%3A%2F%2Fexodus.desync.com%3A6969"],"infoHash":"7d1ad49e3a1e56103e3dcdbab960b0b825c1385a","infoHashBuffer":{"type":"Buffer","data":[125,26,212,158,58,30,86,16,62,61,205,186,185,96,176,184,37,193,56,90]},"announce":[],"urlList":[]}}